HIERARCHY
ROOT Hips
{
	OFFSET 0.000000 83.214638 0.000000
	CHANNELS 6 Xposition Yposition Zposition Xrotation Yrotation Zrotation
	JOINT Pelvis
	{
		OFFSET 0.000000 0.000000 0.000000
		CHANNELS 3 Xrotation Yrotation Zrotation
		JOINT LeftUpLeg
		{
			OFFSET 8.479700 -4.795502 -0.379100
			CHANNELS 3 Xrotation Yrotation Zrotation
			JOINT LeftLeg
			{
				OFFSET 0.024144 -32.555107 0.112900
				CHANNELS 3 Xrotation Yrotation Zrotation
				JOINT LeftFoot
				{
					OFFSET -0.024144 -32.638630 -3.012600
					CHANNELS 3 Xrotation Yrotation Zrotation
					JOINT LeftToeBase
					{
						OFFSET 0.970200 -13.225400 11.864200
						CHANNELS 3 Xrotation Yrotation Zrotation
						End Site
						{
							OFFSET 0.000000 12.319262 0.000000
						}
					}
					JOINT LFootTongue
					{
						OFFSET 1.142400 -1.059800 6.665200
						CHANNELS 3 Xrotation Yrotation Zrotation
						End Site
						{
							OFFSET 0.000000 12.319262 0.000000
						}
					}
				}
				JOINT LeftPantLeg
				{
					OFFSET 0.918482 -16.533964 -2.284700
					CHANNELS 3 Xrotation Yrotation Zrotation
					End Site
					{
						OFFSET 0.350399 24.744368 0.000000
					}
				}
			}
		}
		JOINT RightUpLeg
		{
			OFFSET -8.479700 -4.795502 -0.379100
			CHANNELS 3 Xrotation Yrotation Zrotation
			JOINT RightLeg
			{
				OFFSET -0.023144 -32.555092 0.112900
				CHANNELS 3 Xrotation Yrotation Zrotation
				JOINT RightFoot
				{
					OFFSET 0.023144 -32.638641 -3.012700
					CHANNELS 3 Xrotation Yrotation Zrotation
					JOINT RightToeBase
					{
						OFFSET -0.970200 -13.225400 11.864200
						CHANNELS 3 Xrotation Yrotation Zrotation
						End Site
						{
							OFFSET 0.000000 12.319244 0.000000
						}
					}
					JOINT RFootTongue
					{
						OFFSET -1.142200 -1.059800 6.665200
						CHANNELS 3 Xrotation Yrotation Zrotation
						End Site
						{
							OFFSET 0.000000 12.319243 0.000000
						}
					}
				}
				JOINT RightPantLeg
				{
					OFFSET -0.919482 -16.533978 -2.284800
					CHANNELS 3 Xrotation Yrotation Zrotation
					End Site
					{
						OFFSET -0.350400 24.744419 0.000000
					}
				}
			}
		}
	}
	JOINT Spine
	{
		OFFSET 0.000000 7.722000 1.166200
		CHANNELS 3 Xrotation Yrotation Zrotation
		JOINT Spine1
		{
			OFFSET 0.000000 12.024101 0.248800
			CHANNELS 3 Xrotation Yrotation Zrotation
			JOINT Spine2
			{
				OFFSET 0.000000 11.502998 -0.491200
				CHANNELS 3 Xrotation Yrotation Zrotation
				JOINT Neck
				{
					OFFSET 0.000000 18.430702 -3.123100
					CHANNELS 3 Xrotation Yrotation Zrotation
					JOINT Head
					{
						OFFSET 0.000000 9.051102 1.034000
						CHANNELS 3 Xrotation Yrotation Zrotation
						JOINT HairB
						{
							OFFSET 0.208400 24.786102 24.822300
							CHANNELS 3 Xrotation Yrotation Zrotation
							End Site
							{
								OFFSET 0.000000 32.263779 0.000000
							}
						}
						JOINT HairA
						{
							OFFSET -7.081100 24.428299 23.196600
							CHANNELS 3 Xrotation Yrotation Zrotation
							End Site
							{
								OFFSET 0.000000 32.263779 0.000000
							}
						}
						JOINT Hat
						{
							OFFSET 16.728800 15.048294 -15.439601
							CHANNELS 3 Xrotation Yrotation Zrotation
							End Site
							{
								OFFSET 0.000000 32.263779 0.000000
							}
						}
					}
				}
				JOINT LeftShoulder
				{
					OFFSET 6.197800 13.665199 -4.064700
					CHANNELS 3 Xrotation Yrotation Zrotation
					JOINT LeftArm
					{
						OFFSET 7.778100 -0.187103 -1.709300
						CHANNELS 3 Xrotation Yrotation Zrotation
						JOINT LeftForeArm
						{
							OFFSET 22.049376 0.000000 0.000000
							CHANNELS 3 Xrotation Yrotation Zrotation
							JOINT LeftHand
							{
								OFFSET 23.009392 0.000000 0.000000
								CHANNELS 3 Xrotation Yrotation Zrotation
								JOINT LeftHandThumb1
								{
									OFFSET 3.507191 -2.063065 3.133727
									CHANNELS 3 Xrotation Yrotation Zrotation
									JOINT LeftHandThumb2
									{
										OFFSET 3.101337 -1.790558 1.790558
										CHANNELS 3 Xrotation Yrotation Zrotation
										JOINT LeftHandThumb3
										{
											OFFSET 3.058640 -1.765907 1.765906
											CHANNELS 3 Xrotation Yrotation Zrotation
											End Site
											{
												OFFSET -0.415260 3.926476 -0.049563
											}
										}
									}
								}
								JOINT LeftHandIndex1
								{
									OFFSET 11.334419 -0.901459 3.706815
									CHANNELS 3 Xrotation Yrotation Zrotation
									JOINT LeftHandIndex2
									{
										OFFSET 3.283112 0.000000 0.000000
										CHANNELS 3 Xrotation Yrotation Zrotation
										JOINT LeftHandIndex3
										{
											OFFSET 3.323853 0.000000 0.000000
											CHANNELS 3 Xrotation Yrotation Zrotation
											End Site
											{
												OFFSET -1.135597 3.097809 0.402452
											}
										}
									}
								}
								JOINT LeftHandMiddle1
								{
									OFFSET 11.335861 0.000000 0.000000
									CHANNELS 3 Xrotation Yrotation Zrotation
									JOINT LeftHandMiddle2
									{
										OFFSET 3.410492 0.000000 0.000000
										CHANNELS 3 Xrotation Yrotation Zrotation
										JOINT LeftHandMiddle3
										{
											OFFSET 3.312172 0.000000 0.000000
											CHANNELS 3 Xrotation Yrotation Zrotation
											End Site
											{
												OFFSET -1.150200 3.080154 0.400270
											}
										}
									}
								}
								JOINT LeftHandRing1
								{
									OFFSET 11.514786 -0.013176 -3.003090
									CHANNELS 3 Xrotation Yrotation Zrotation
									JOINT LeftHandRing2
									{
										OFFSET 3.053307 0.000000 0.000000
										CHANNELS 3 Xrotation Yrotation Zrotation
										JOINT LeftHandRing3
										{
											OFFSET 3.295807 0.000000 0.000000
											CHANNELS 3 Xrotation Yrotation Zrotation
											End Site
											{
												OFFSET -1.281006 3.013344 0.375733
											}
										}
									}
								}
								JOINT LeftHandPinky1
								{
									OFFSET 10.518692 -0.960396 -5.730441
									CHANNELS 3 Xrotation Yrotation Zrotation
									JOINT LeftHandPinky2
									{
										OFFSET 2.861649 0.000000 0.000000
										CHANNELS 3 Xrotation Yrotation Zrotation
										JOINT LeftHandPinky3
										{
											OFFSET 2.863380 0.000000 0.000000
											CHANNELS 3 Xrotation Yrotation Zrotation
											End Site
											{
												OFFSET -0.843597 2.711159 0.369971
											}
										}
									}
								}
							}
							JOINT LSleeve
							{
								OFFSET 6.676277 -0.344902 -1.011730
								CHANNELS 3 Xrotation Yrotation Zrotation
								End Site
								{
									OFFSET 0.000000 14.885353 0.000000
								}
							}
						}
					}
				}
				JOINT RightShoulder
				{
					OFFSET -6.197800 13.665199 -4.064700
					CHANNELS 3 Xrotation Yrotation Zrotation
					JOINT RightArm
					{
						OFFSET -7.778100 -0.187103 -1.709300
						CHANNELS 3 Xrotation Yrotation Zrotation
						JOINT RightForeArm
						{
							OFFSET -22.049376 0.000000 0.000000
							CHANNELS 3 Xrotation Yrotation Zrotation
							JOINT RightHand
							{
								OFFSET -23.009392 0.000000 0.000000
								CHANNELS 3 Xrotation Yrotation Zrotation
								JOINT RightHandThumb1
								{
									OFFSET -3.507191 -2.063065 3.133727
									CHANNELS 3 Xrotation Yrotation Zrotation
									JOINT RightHandThumb2
									{
										OFFSET -3.101337 -1.790558 1.790558
										CHANNELS 3 Xrotation Yrotation Zrotation
										JOINT RightHandThumb3
										{
											OFFSET -3.058640 -1.765907 1.765906
											CHANNELS 3 Xrotation Yrotation Zrotation
											End Site
											{
												OFFSET 0.415260 3.926476 -0.049563
											}
										}
									}
								}
								JOINT RightHandIndex1
								{
									OFFSET -11.334419 -0.901459 3.706815
									CHANNELS 3 Xrotation Yrotation Zrotation
									JOINT RightHandIndex2
									{
										OFFSET -3.283112 0.000000 0.000000
										CHANNELS 3 Xrotation Yrotation Zrotation
										JOINT RightHandIndex3
										{
											OFFSET -3.323853 0.000000 0.000000
											CHANNELS 3 Xrotation Yrotation Zrotation
											End Site
											{
												OFFSET 1.135597 3.097809 0.402452
											}
										}
									}
								}
								JOINT RightHandMiddle1
								{
									OFFSET -11.335861 0.000000 0.000000
									CHANNELS 3 Xrotation Yrotation Zrotation
									JOINT RightHandMiddle2
									{
										OFFSET -3.410492 0.000000 0.000000
										CHANNELS 3 Xrotation Yrotation Zrotation
										JOINT RightHandMiddle3
										{
											OFFSET -3.312172 0.000000 0.000000
											CHANNELS 3 Xrotation Yrotation Zrotation
											End Site
											{
												OFFSET 1.150200 3.080154 0.400270
											}
										}
									}
								}
								JOINT RightHandRing1
								{
									OFFSET -11.514786 -0.013176 -3.003090
									CHANNELS 3 Xrotation Yrotation Zrotation
									JOINT RightHandRing2
									{
										OFFSET -3.053307 0.000000 0.000000
										CHANNELS 3 Xrotation Yrotation Zrotation
										JOINT RightHandRing3
										{
											OFFSET -3.295807 0.000000 0.000000
											CHANNELS 3 Xrotation Yrotation Zrotation
											End Site
											{
												OFFSET 1.281006 3.013344 0.375733
											}
										}
									}
								}
								JOINT RightHandPinky1
								{
									OFFSET -10.518692 -0.960396 -5.730441
									CHANNELS 3 Xrotation Yrotation Zrotation
									JOINT RightHandPinky2
									{
										OFFSET -2.861649 0.000000 0.000000
										CHANNELS 3 Xrotation Yrotation Zrotation
										JOINT RightHandPinky3
										{
											OFFSET -2.863380 0.000000 0.000000
											CHANNELS 3 Xrotation Yrotation Zrotation
											End Site
											{
												OFFSET 0.843597 2.711159 0.369971
											}
										}
									}
								}
							}
							JOINT RSleeve
							{
								OFFSET -6.676277 -0.344902 -1.011730
								CHANNELS 3 Xrotation Yrotation Zrotation
								End Site
								{
									OFFSET 0.000000 14.885353 0.000000
								}
							}
						}
					}
				}
				JOINT Backpack
				{
					OFFSET 0.000000 -2.471497 36.677502
					CHANNELS 3 Xrotation Yrotation Zrotation
					End Site
					{
						OFFSET 0.000000 20.427315 0.000000
					}
				}
				JOINT Hood
				{
					OFFSET 0.000000 18.754097 -10.431000
					CHANNELS 3 Xrotation Yrotation Zrotation
					JOINT Hood1
					{
						OFFSET 0.000000 -5.011002 -7.685901
						CHANNELS 3 Xrotation Yrotation Zrotation
						End Site
						{
							OFFSET 0.000000 9.175140 0.000000
						}
					}
				}
				JOINT LHoodieString
				{
					OFFSET 5.250500 16.397697 3.089900
					CHANNELS 3 Xrotation Yrotation Zrotation
					JOINT LHoodieString1
					{
						OFFSET 0.257700 -6.364304 3.694600
						CHANNELS 3 Xrotation Yrotation Zrotation
						JOINT LHoodieString2
						{
							OFFSET 0.000000 -9.643799 2.679100
							CHANNELS 3 Xrotation Yrotation Zrotation
							End Site
							{
								OFFSET 0.000000 10.009018 0.000000
							}
						}
					}
				}
				JOINT RHoodieString
				{
					OFFSET -5.250500 16.397697 3.089900
					CHANNELS 3 Xrotation Yrotation Zrotation
					JOINT RHoodieString1
					{
						OFFSET -0.257700 -6.364304 3.694600
						CHANNELS 3 Xrotation Yrotation Zrotation
						JOINT RHoodieString2
						{
							OFFSET 0.000000 -9.643799 2.679100
							CHANNELS 3 Xrotation Yrotation Zrotation
							End Site
							{
								OFFSET 0.000000 10.009018 0.000000
							}
						}
					}
				}
			}
			JOINT LBackpack_Strap
			{
				OFFSET 15.223200 -7.719803 -6.610900
				CHANNELS 3 Xrotation Yrotation Zrotation
				End Site
				{
					OFFSET 0.000000 16.040596 0.000000
				}
			}
			JOINT RBackpack_Strap
			{
				OFFSET -15.223000 -7.719803 -6.610900
				CHANNELS 3 Xrotation Yrotation Zrotation
				End Site
				{
					OFFSET 0.000000 16.040596 0.000000
				}
			}
		}
	}
	JOINT BoyFacialAnim_Joint
	{
		OFFSET 1.000000 -82.208099 -1.550900
		CHANNELS 3 Xrotation Yrotation Zrotation
		End Site
		{
			OFFSET 0.000000 30.012791 0.000000
		}
	}
}
MOTION
Frames: 4
Frame Time: 0.016667
-0.250048 70.702034 0.244967 11.695787 -49.489543 11.290279 -0.000000 0.000002 0.000000 -64.578660 28.127904 42.221047 45.036242 -20.081267 3.175757 2.545430 0.952103 -10.119391 0.000000 -0.000000 0.000000 0.000000 -0.000000 0.000000 -0.000000 0.000001 0.000001 -33.975519 -0.459085 -24.258129 53.259862 1.997438 -6.750507 -26.566048 -2.745432 24.293583 0.000000 0.000002 0.000000 0.000000 0.000002 0.000000 -0.000001 -0.000000 -0.000003 10.973419 2.836814 -2.050426 6.100716 5.566530 -4.284690 -5.786908 6.328144 -3.046187 2.318656 9.363415 -0.265728 -4.146876 23.161865 -3.522970 -0.000001 -0.000000 -0.000000 -0.000001 -0.000000 -0.000000 -0.000001 -0.000000 -0.000000 -1.882849 -16.244765 -2.883353 -10.641506 2.224948 -45.488367 -22.862395 -25.786227 -15.871707 2.491078 -2.511882 6.860491 18.457942 -9.513768 13.216583 -1.150186 11.255272 -8.400884 -0.000001 -0.000003 0.000003 -1.232798 -5.771925 -0.192313 0.133972 -0.197650 -4.602077 -0.000002 0.000000 -0.000002 1.884743 4.663388 -4.597364 0.476671 -1.009838 -12.986448 0.000003 -0.000001 -0.000000 3.024644 7.938935 -14.103454 -0.708049 -0.566183 -18.895732 0.000000 0.000002 -0.000002 2.010374 6.305985 -22.386507 -0.815390 -0.210768 -16.746507 -0.000001 -0.000004 -0.000001 -0.000001 0.000000 -0.000001 -5.080961 24.428090 1.493068 6.647376 -34.818552 57.612905 -21.031983 44.833806 19.961675 -0.087219 35.608481 7.474272 55.149567 18.649534 -29.698277 -0.442560 -14.180560 7.313119 0.000000 0.000001 0.000001 5.673403 7.585035 36.844178 1.050471 3.824468 68.900216 0.000000 -0.000000 0.000004 -0.125680 1.886080 45.000756 -1.168997 3.204687 68.417663 0.000001 -0.000000 0.000002 -5.312026 1.216636 58.508814 -0.745192 1.667560 48.011271 -0.000002 -0.000000 0.000000 -7.756769 -9.376460 47.264038 -0.526082 1.541550 45.600508 -0.000004 -0.000001 0.000000 -0.000001 -0.000001 0.000003 0.000002 0.000000 0.000000 0.000002 0.000000 0.000000 0.000002 0.000000 0.000000 0.000002 0.000000 0.000000 0.000002 0.000000 0.000000 -0.000000 0.000000 -0.000000 0.000002 0.000000 0.000000 0.000002 0.000000 0.000000 -0.000000 0.000000 -0.000000 0.000001 -0.000001 0.000001 0.000001 -0.000001 0.000001 -0.000000 0.000002 0.000000 
-0.281272 70.696068 0.240130 11.679636 -49.632782 11.293450 0.000000 0.000000 -0.000000 -64.514238 28.122826 42.279284 45.061992 -19.899555 3.239303 2.511245 0.964322 -10.220494 0.000000 0.000000 -0.000000 0.000000 0.000000 -0.000000 -0.000000 -0.000001 0.000001 -33.982288 -0.371543 -24.197053 53.318379 2.003591 -6.749587 -26.598739 -2.719679 24.266948 -0.000000 -0.000002 0.000000 -0.000000 -0.000002 0.000000 0.000002 -0.000001 0.000000 10.971154 2.892773 -2.064650 6.133760 5.604297 -4.247336 -5.764548 6.336163 -3.016235 2.313013 9.402309 -0.496347 -4.187050 23.085213 -3.410674 -0.000000 -0.000000 -0.000000 -0.000000 -0.000000 -0.000000 -0.000000 -0.000000 -0.000000 -1.902997 -16.283492 -3.000826 -10.665531 2.222327 -45.395124 -22.827792 -25.744972 -15.838618 2.461416 -2.435300 6.885878 18.464906 -9.494843 13.214773 -1.134536 11.275836 -8.403363 -0.000002 0.000000 0.000002 -1.233064 -5.735408 -0.262386 0.133845 -0.200947 -4.674380 0.000002 0.000001 -0.000002 1.884270 4.658532 -4.668104 0.474420 -1.015933 -13.148185 -0.000004 -0.000000 -0.000003 3.023535 7.934860 -14.172987 -0.709390 -0.572786 -19.056738 0.000002 0.000002 0.000002 2.010014 6.304095 -22.455446 -0.816757 -0.219694 -16.906993 0.000001 0.000001 -0.000000 -0.000001 -0.000002 0.000002 -5.036449 24.265318 1.406468 6.704546 -34.680316 57.476062 -20.413776 44.915430 19.709409 0.211644 35.320233 6.345749 55.149556 18.649540 -29.698277 -0.442541 -14.180550 7.313220 -0.000001 0.000001 0.000000 5.673389 7.585006 36.844134 1.050452 3.824494 68.900244 -0.000003 -0.000001 0.000002 -0.125538 1.886253 45.000773 -1.169021 3.204640 68.417650 -0.000001 0.000001 -0.000002 -5.312142 1.216699 58.508753 -0.743518 1.669650 48.011261 -0.000001 -0.000003 0.000005 -7.756762 -9.376481 47.264001 -0.524053 1.543656 45.600464 -0.000003 -0.000002 -0.000000 -0.000002 -0.000001 0.000002 0.000000 -0.000002 0.000001 0.000000 -0.000002 0.000001 0.000000 -0.000002 0.000001 0.000000 -0.000002 0.000001 0.000000 -0.000002 0.000001 -0.000001 -0.000000 0.000001 0.000000 -0.000002 0.000001 0.000000 -0.000002 0.000001 -0.000001 -0.000000 0.000001 -0.000001 0.000000 0.000000 -0.000001 0.000000 0.000000 0.000000 0.000000 -0.000000 
-0.314133 70.687965 0.229796 11.533824 -49.770653 11.219445 0.000000 -0.000000 -0.000000 -64.355101 28.137895 42.318493 45.094456 -19.917207 3.298845 2.442131 0.976039 -10.324336 -0.000000 -0.000000 -0.000000 -0.000000 -0.000000 -0.000000 0.000000 -0.000000 0.000000 -33.910062 -0.296408 -24.176776 53.376125 2.043275 -6.744058 -26.571471 -2.685497 24.230373 -0.000000 -0.000002 0.000000 -0.000000 -0.000002 0.000000 -0.000001 0.000001 -0.000003 10.991093 2.931215 -2.087504 6.210110 5.609810 -4.231205 -5.697418 6.318248 -3.012860 2.193452 9.464195 -0.640305 -4.095894 23.049771 -3.380867 0.000001 0.000000 0.000000 0.000001 0.000000 0.000000 0.000001 0.000000 0.000000 -1.908074 -16.258751 -3.020666 -10.687425 2.247388 -45.360024 -22.769665 -25.731471 -15.803248 2.450927 -2.428299 6.875490 18.484922 -9.440105 13.209269 -1.089332 11.335331 -8.410333 0.000001 -0.000001 0.000001 -1.233499 -5.629205 -0.465534 0.133369 -0.210496 -4.883991 -0.000000 0.000000 -0.000003 1.883509 4.644746 -4.873343 0.467262 -1.037527 -13.616843 -0.000002 0.000002 -0.000003 3.021440 7.923302 -14.374519 -0.715593 -0.596507 -19.523324 0.000003 -0.000003 0.000003 2.012104 6.297359 -22.655574 -0.821030 -0.245821 -17.372228 0.000001 0.000001 -0.000000 -0.000000 -0.000000 -0.000002 -5.072082 24.344579 1.612734 6.672725 -34.749622 56.881699 -18.584965 45.084006 18.881575 0.891878 34.215928 3.308631 55.149529 18.649538 -29.698267 -0.442568 -14.180576 7.313324 0.000001 0.000000 -0.000000 5.673419 7.585006 36.844120 1.050398 3.824490 68.900291 0.000001 0.000003 0.000002 -0.125379 1.886438 45.000756 -1.169046 3.204637 68.417704 0.000000 0.000001 0.000000 -5.312269 1.216727 58.508801 -0.741737 1.671688 48.011141 -0.000002 0.000001 0.000004 -7.756766 -9.376525 47.264025 -0.522054 1.545754 45.600419 -0.000000 0.000001 -0.000005 -0.000000 0.000000 -0.000001 -0.000000 0.000001 -0.000001 -0.000000 0.000001 -0.000001 -0.000000 0.000001 -0.000001 -0.000000 0.000001 -0.000001 -0.000000 0.000001 -0.000001 0.000000 -0.000001 0.000000 -0.000000 0.000001 -0.000001 -0.000000 0.000001 -0.000001 0.000000 -0.000001 0.000000 0.000003 -0.000000 0.000001 0.000003 -0.000000 0.000001 0.000000 -0.000000 -0.000000 
-0.343185 70.681328 0.194040 11.453872 -49.955519 11.208599 -0.000000 0.000000 0.000000 -64.219576 28.169249 42.354522 45.082425 -19.766211 3.390863 2.419700 0.964305 -10.466064 -0.000000 0.000000 0.000000 -0.000000 0.000000 -0.000000 -0.000000 -0.000001 -0.000000 -33.919525 -0.160194 -24.116204 53.479411 2.072982 -6.738900 -26.577166 -2.650374 24.172997 0.000000 -0.000002 0.000000 0.000000 -0.000002 0.000000 -0.000001 0.000001 -0.000002 10.999896 2.965497 -2.108567 6.262215 5.612158 -4.216232 -5.653938 6.298714 -3.010384 2.178522 9.585921 -0.934681 -4.140475 23.001135 -3.228226 -0.000001 0.000000 0.000000 -0.000001 0.000000 0.000000 -0.000001 0.000000 0.000000 -1.889326 -15.962412 -3.044853 -10.743611 2.048040 -45.378964 -22.673240 -25.677852 -15.719294 2.461757 -2.430184 6.807731 18.516880 -9.352209 13.200243 -1.014978 11.429190 -8.416371 0.000002 -0.000002 0.000001 -1.230643 -5.459036 -0.790866 0.132219 -0.225665 -5.219964 0.000003 -0.000001 -0.000000 1.882253 4.622890 -5.202229 0.455159 -1.074091 -14.367979 0.000003 0.000001 0.000002 3.018065 7.905105 -14.697546 -0.726063 -0.634171 -20.270963 0.000001 0.000002 -0.000000 2.014184 6.287033 -22.976338 -0.828511 -0.287382 -18.117847 -0.000002 -0.000002 -0.000001 0.000001 0.000002 -0.000000 -5.079890 24.138015 1.822010 6.573131 -34.379539 55.764547 -14.830239 45.143285 17.007531 2.052976 32.012373 -1.966992 55.149543 18.649524 -29.698291 -0.442585 -14.180573 7.313390 -0.000001 -0.000005 -0.000001 5.673405 7.585048 36.844117 1.050426 3.824486 68.900257 0.000000 0.000001 0.000007 -0.125223 1.886609 45.000763 -1.169002 3.204682 68.417711 -0.000001 0.000001 0.000002 -5.312381 1.216846 58.508766 -0.740116 1.673718 48.011152 -0.000001 0.000000 0.000000 -7.756704 -9.376528 47.264045 -0.520046 1.547869 45.600290 -0.000000 -0.000003 -0.000002 -0.000000 0.000002 -0.000002 0.000002 -0.000002 0.000002 0.000002 -0.000002 0.000002 0.000002 -0.000002 0.000002 0.000002 -0.000002 0.000002 0.000002 -0.000002 0.000002 0.000001 -0.000001 0.000000 0.000002 -0.000002 0.000002 0.000002 -0.000002 0.000002 0.000001 -0.000001 0.000000 0.000001 -0.000003 0.000002 0.000001 -0.000003 0.000002 -0.000000 0.000000 0.000000 
